<?xml version="1.0" encoding="UTF-8"?>
<svg version="1.1" xmlns="http://www.w3.org/2000/svg" width="512" height="512">
<path d="M0 0 C2.27555887 0.8197804 4.54548818 1.65530065 6.81054688 2.50366211 C8.04197922 2.95182281 9.27341156 3.39998352 10.54216003 3.86172485 C13.85912812 5.06912239 17.16942025 6.29390403 20.47872543 7.52212143 C23.91199164 8.79271958 27.35140878 10.04643628 30.7902832 11.30175781 C36.9608696 13.55686575 43.12652683 15.82507517 49.28964901 18.10049534 C57.34644115 21.0748836 65.41010957 24.03047029 73.47460938 26.98388672 C76.8739333 28.22885485 80.27093749 29.47983056 83.66601562 30.73632812 C91.05473467 33.46347967 98.42902555 36.12775548 106.02929688 38.21850586 C106.58617187 37.46698242 107.14304688 36.71545898 107.71679688 35.94116211 C114.85638615 27.53526055 126.13123653 22.88963109 136.92382812 21.83959961 C150.14692422 21.24444949 161.66228134 24.85800946 172.02929688 33.21850586 C180.4484409 41.89234668 186.12292201 51.88843477 186.15429688 64.15600586 C186.12249606 65.84372061 186.0842122 67.53138504 186.02929688 69.21850586 C187.27308105 69.46205811 188.51686523 69.70561035 189.79833984 69.95654297 C195.63773389 71.25939139 201.13235542 73.30821977 206.72460938 75.40991211 C207.8508522 75.82744247 208.97709503 76.24497284 210.13746643 76.67515564 C213.18152922 77.80451994 216.22371241 78.93876886 219.26504135 80.07546997 C224.37606436 81.98416369 229.49119518 83.88184859 234.60619926 85.77984238 C235.90943619 86.26348091 237.21258347 86.7473611 238.51564217 87.23147964 C247.6638542 90.6291446 256.83472292 93.95485145 266.03320312 97.21459961 C267.11925842 97.60088028 268.20531372 97.98716095 269.32427979 98.38514709 C275.52870898 100.59199846 275.52870898 100.59199846 281.74200439 102.77371216 C284.55400342 103.7548071 287.36030832 104.750838 290.16601562 105.74975586 C290.98219864 106.02915512 291.79838165 106.30855438 292.63929749 106.59642029 C299.38551307 109.02372892 304.49024298 112.1179631 307.66992188 118.85131836 C308.10175781 119.74206055 308.53359375 120.63280273 308.97851562 121.55053711 C309.62240234 122.93305664 309.62240234 122.93305664 310.27929688 124.34350586 C311.13576969 126.13916382 311.9952827 127.93337406 312.85742188 129.72631836 C313.31651947 130.68113098 313.77561707 131.6359436 314.24862671 132.61968994 C316.22845478 136.66842201 318.35321183 140.63726523 320.46923828 144.6159668 C326.54478155 156.10540951 332.35494482 167.72458504 338.16210938 179.35131836 C339.29113318 181.60869063 340.42027562 183.86600357 341.54953003 186.1232605 C343.8920643 190.80686846 346.23317739 195.49118315 348.57324219 200.17602539 C351.27840134 205.59152547 353.98624947 211.00567184 356.69566453 216.41904366 C359.31805563 221.65875534 361.93821116 226.89958248 364.55739975 232.14089584 C365.66765446 234.36207338 366.77850579 236.5829528 367.88995743 238.80353165 C369.43068494 241.88246531 370.96886788 244.96265647 372.50634766 248.04321289 C372.96752487 248.96354309 373.42870209 249.88387329 373.90385437 250.83209229 C374.31852463 251.66425262 374.73319489 252.49641296 375.16043091 253.35379028 C375.52353426 254.08037401 375.88663761 254.80695774 376.26074409 255.55555916 C377.02929688 257.21850586 377.02929688 257.21850586 377.02929688 258.21850586 C365.47929687 258.21850586 353.92929687 258.21850586 342.02929688 258.21850586 C335.38556195 245.66918788 328.87376071 233.06966928 322.52148438 220.37084961 C321.66144176 218.65398976 320.80134334 216.93715787 319.94119263 215.22035217 C318.16349878 211.67087382 316.38739527 208.12060512 314.61230469 204.56982422 C312.33436929 200.01385033 310.05086957 195.46068876 307.76608086 190.90814877 C305.99964419 187.38634587 304.23680736 183.86275059 302.47500992 180.33862495 C301.63340673 178.65659902 300.7905055 176.97522191 299.94628525 175.29450798 C298.77730211 172.96627369 297.61335106 170.63559231 296.45068359 168.30419922 C296.10171524 167.61188202 295.75274689 166.91956482 295.39320374 166.20626831 C293.02929688 161.44684679 293.02929688 161.44684679 293.02929688 159.21850586 C292.36929687 159.21850586 291.70929688 159.21850586 291.02929688 159.21850586 C290.79074478 160.02059982 290.55219269 160.82269379 290.30641174 161.64909363 C288.72711781 166.06306705 286.70103344 170.14603302 284.59545898 174.32910156 C284.14810898 175.22569992 283.70075897 176.12229828 283.23985291 177.04606628 C281.76601269 179.99743984 280.28644862 182.94590185 278.80664062 185.89428711 C277.78027157 187.94583285 276.75419843 189.99752666 275.72840881 192.04936218 C273.58142394 196.34176978 271.43176189 200.63282204 269.2800293 204.92285156 C266.51613361 210.4336064 263.75754933 215.94699864 261.00076962 221.46131611 C258.88436052 225.69386306 256.76587237 229.92536645 254.64666939 234.15651512 C253.62825895 236.19014546 252.61033877 238.22402139 251.59290886 240.25814247 C250.17519964 243.0914041 248.75486964 245.9233355 247.33374023 248.75488281 C246.91034363 249.60212921 246.48694702 250.44937561 246.05072021 251.32229614 C245.66518478 252.08910202 245.27964935 252.8559079 244.88243103 253.64595032 C244.54673064 254.31567525 244.21103025 254.98540018 243.86515713 255.67541981 C243.02929688 257.21850586 243.02929688 257.21850586 242.02929688 258.21850586 C239.43570366 258.30702115 236.86889996 258.33376531 234.27539062 258.31616211 C233.499944 258.31474716 232.72449738 258.31333221 231.92555237 258.31187439 C229.43926193 258.30625931 226.95306027 258.29370432 224.46679688 258.28100586 C222.78515755 258.2759928 221.10351681 258.27142956 219.421875 258.26733398 C215.29098006 258.25713424 211.16015612 258.23817457 207.02929688 258.21850586 C213.94480188 243.4144416 221.18106521 228.78266009 228.50195312 214.17553711 C229.67753942 211.82623468 230.85294611 209.47684236 232.02818298 207.12736511 C234.77808729 201.63062947 237.53002368 196.13491398 240.28274578 190.63958901 C243.4235741 184.36922099 246.56205292 178.09767799 249.70036328 171.82604945 C256.14078126 158.95558621 262.58405638 146.08655475 269.02929688 133.21850586 C264.09091421 130.98299177 259.16887696 128.81368038 254.06420898 126.97949219 C252.98114975 126.58840775 251.89809052 126.1973233 250.7822113 125.79438782 C249.63527298 125.38391708 248.48833466 124.97344635 247.30664062 124.55053711 C245.44381156 123.87879524 243.58098312 123.20705165 241.71818638 122.53522015 C239.12073026 121.59934119 236.52219598 120.66647644 233.92364502 119.73364258 C228.82384787 117.90248121 223.72561501 116.06697226 218.62807083 114.22954941 C216.75074081 113.55291597 214.87321923 112.87681409 212.99569702 112.20071411 C203.76302871 108.86730905 194.56428318 105.44938841 185.39085388 101.95625305 C184.47562454 101.60926865 183.5603952 101.26228424 182.61743164 100.90478516 C181.82345474 100.60179001 181.02947784 100.29879486 180.21144104 99.98661804 C178.16581055 99.26655851 176.1413154 98.70496291 174.02929688 98.21850586 C174.02929688 98.87850586 174.02929688 99.53850586 174.02929688 100.21850586 C172.33438073 101.62119508 170.57146187 102.94240931 168.77929688 104.21850586 C167.80476563 104.91975586 166.83023437 105.62100586 165.82617188 106.34350586 C160.04596354 110.21850586 160.04596354 110.21850586 156.02929688 110.21850586 C156.02929688 201.62850586 156.02929688 293.03850586 156.02929688 387.21850586 C160.64929688 387.21850586 165.26929688 387.21850586 170.02929688 387.21850586 C190.92666969 390.10090211 209.1396489 401.57584037 221.96679688 418.15209961 C230.84846691 431.35685524 236.25531978 445.76313081 236.52929688 461.78100586 C236.54798828 462.5310791 236.56667969 463.28115234 236.5859375 464.05395508 C236.52565895 469.20197528 235.36006721 472.11241654 232.02929688 476.21850586 C227.66359882 480.05502839 224.02397724 480.34516096 218.33097839 480.35894775 C217.30442838 480.36340444 217.30442838 480.36340444 216.25713998 480.36795115 C213.95876785 480.37663834 211.6604478 480.37814641 209.36206055 480.37963867 C207.71620065 480.38426683 206.07034182 480.38929149 204.42448425 480.39468384 C199.94919556 480.40781004 195.47392187 480.41425323 190.99861693 480.4186945 C188.20298228 480.42162487 185.40735172 480.42572961 182.61171913 480.43019867 C173.86584593 480.44387418 165.11998211 480.45354057 156.37409896 480.45740056 C146.27636957 480.46188159 136.17877552 480.47943134 126.08108729 480.50840116 C118.27717314 480.53001349 110.47329707 480.5401046 102.66935331 480.54144168 C98.00781479 480.54249003 93.34640349 480.54840421 88.68489647 480.56626129 C84.29936507 480.58273422 79.91405663 480.58490129 75.52850533 480.57612228 C73.92007221 480.57535149 72.31162714 480.57970021 70.70322418 480.58958054 C68.50473961 480.60229223 66.30704563 480.59642813 64.10856628 480.58599854 C62.26437245 480.58819838 62.26437245 480.58819838 60.38292217 480.59044266 C55.33851368 480.03098804 52.10628717 478.41192753 48.71679688 474.65600586 C43.89755409 467.69487739 45.16999588 456.38723165 46.64257812 448.25366211 C51.77065287 427.08623462 63.9473037 409.90064022 82.21679688 398.03100586 C88.8572146 394.07782151 95.645847 391.44254503 103.02929688 389.21850586 C104.21265625 388.84918945 104.21265625 388.84918945 105.41992188 388.47241211 C112.46560306 386.58051624 118.33993868 387.21850586 126.02929688 387.21850586 C126.02929688 295.80850586 126.02929688 204.39850586 126.02929688 110.21850586 C124.37929687 109.88850586 122.72929687 109.55850586 121.02929688 109.21850586 C115.71180646 106.34123365 111.07291522 102.71141513 107.02929688 98.21850586 C106.18367187 97.29038086 105.33804688 96.36225586 104.46679688 95.40600586 C98.20450552 87.72583722 96.17405991 78.85442425 95.02929688 69.21850586 C94.38022369 68.98348862 93.73115051 68.74847137 93.06240845 68.5063324 C86.85703512 66.25905254 80.65241974 64.00969319 74.44858742 61.7581625 C71.2613673 60.60151611 68.07388861 59.44559486 64.88574219 58.29150391 C50.53510327 53.09490158 36.21452105 47.85313305 22.02929688 42.21850586 C22.59737061 43.32436035 23.16544434 44.43021484 23.75073242 45.56958008 C26.4078038 50.74334179 29.06277812 55.91817763 31.71679688 61.09350586 C32.19637848 62.02866028 32.67596008 62.9638147 33.17007446 63.92730713 C39.43545199 76.14922496 45.64618418 88.39433293 51.75732422 100.6940918 C54.87452951 106.95313619 58.06779966 113.16508531 61.34179688 119.34350586 C64.48694851 125.28131884 67.61220846 131.22707147 70.65429688 137.21850586 C71.16923706 138.21648193 71.16923706 138.21648193 71.69458008 139.23461914 C73.13853364 142.10144116 74.02929688 143.96143016 74.02929688 147.21850586 C62.80929688 147.21850586 51.58929688 147.21850586 40.02929688 147.21850586 C27.27133682 123.1430006 14.81667559 98.91013994 2.68603516 74.51269531 C-1.38865368 66.33361522 -5.58153833 58.23350244 -9.97070312 50.21850586 C-13.23971129 54.1032173 -15.28166051 58.58233721 -17.51806641 63.10205078 C-17.96556244 63.99835709 -18.41305847 64.89466339 -18.87411499 65.81813049 C-20.35010289 68.77658962 -21.82049316 71.73779561 -23.29101562 74.69897461 C-24.31525701 76.75372753 -25.33991066 78.808275 -26.36495972 80.86262512 C-29.060792 86.26758893 -31.75216001 91.67476224 -34.44226074 97.08258057 C-38.75447758 105.75015234 -43.07209832 114.41502852 -47.39226913 123.07863808 C-48.90372122 126.11180234 -50.41245268 129.14630889 -51.92092896 132.18095398 C-52.84123796 134.02839615 -53.76163317 135.87579539 -54.68212891 137.72314453 C-55.10395447 138.57353302 -55.52578003 139.42392151 -55.96038818 140.30007935 C-56.34447845 141.06977554 -56.72856873 141.83947174 -57.1242981 142.63249207 C-57.45869967 143.30481463 -57.79310123 143.9771372 -58.13763618 144.66983318 C-58.97070312 146.21850586 -58.97070312 146.21850586 -59.97070312 147.21850586 C-62.56429634 147.30702115 -65.13110004 147.33376531 -67.72460938 147.31616211 C-68.500056 147.31474716 -69.27550262 147.31333221 -70.07444763 147.31187439 C-72.56073807 147.30625931 -75.04693973 147.29370432 -77.53320312 147.28100586 C-79.21484245 147.2759928 -80.89648319 147.27142956 -82.578125 147.26733398 C-86.70901994 147.25713424 -90.83984388 147.23817457 -94.97070312 147.21850586 C-87.92723283 132.14336971 -80.56228505 117.23835951 -73.12304688 102.35522461 C-72.5173393 101.14238056 -71.91169903 99.92950289 -71.30612373 98.71659279 C-68.14121894 92.37760824 -64.97431339 86.03962821 -61.80541992 79.70263672 C-58.87802721 73.84845358 -55.9551234 67.99204432 -53.03427118 62.13459557 C-50.50014531 57.05318432 -47.96286897 51.97335425 -45.42322356 46.89469939 C-43.91776303 43.88403039 -42.41387275 40.87260568 -40.9124279 37.85993004 C-37.30565566 30.62506015 -33.66688744 23.40812721 -29.97070312 16.21850586 C-29.37289976 15.04579824 -29.37289976 15.04579824 -28.76301956 13.84939957 C-27.73497349 11.85149699 -26.68169448 9.87022294 -25.61352539 7.89355469 C-25.06696793 6.86796951 -24.52041046 5.84238434 -23.95729065 4.78572083 C-17.51679798 -3.53715897 -9.14723701 -2.9876578 0 0 Z M128.71679688 59.59350586 C126.39639515 63.20301966 125.56014256 65.9268675 126.43554688 70.20288086 C128.06278448 75.35579996 130.32221533 78.34195603 135.02929688 81.21850586 C139.45656461 82.49590748 142.89082695 82.59069795 147.27929688 81.15600586 C151.48261566 78.19457671 154.38398542 75.24048175 155.96679688 70.28100586 C156.06072408 65.67857303 155.65448604 61.96089617 152.40429688 58.47631836 C147.98248723 54.62565913 145.20409815 52.84912468 139.12304688 52.93725586 C134.58860838 53.54635954 131.78772741 56.4395772 128.71679688 59.59350586 Z " fill="#000000" transform="translate(114.970703125,16.781494140625)"/>
<path d="M0 0 C0.7733504 -0.00367669 1.54670081 -0.00735338 2.34348607 -0.01114148 C4.94898838 -0.02220244 7.55445084 -0.02602623 10.15997314 -0.02983093 C12.02243172 -0.03609377 13.88488903 -0.04274041 15.74734497 -0.04974365 C20.81771128 -0.06717025 25.88806814 -0.07770997 30.95845699 -0.08594918 C34.12478487 -0.09109589 37.29110981 -0.09717178 40.45743561 -0.10346031 C50.3598153 -0.12251714 60.26218751 -0.13674715 70.16458201 -0.14507228 C81.60317183 -0.15484708 93.04156825 -0.18117093 104.4800899 -0.22157317 C113.31582135 -0.25171325 122.15149731 -0.26653916 130.98727918 -0.26985329 C136.26702523 -0.27220622 141.54656479 -0.28119813 146.8262558 -0.30631447 C151.7937372 -0.32956323 156.7608757 -0.33384127 161.72839737 -0.32355309 C163.55130528 -0.32305683 165.37422988 -0.32940354 167.19708633 -0.34310913 C169.68697872 -0.36078192 172.17563439 -0.35374525 174.66552734 -0.34057617 C175.38596623 -0.35154542 176.10640512 -0.36251466 176.84867549 -0.37381631 C181.88261996 -0.30959028 184.69780579 1.01210851 188.58673096 4.14717102 C192.84761631 9.03402951 193.26180288 12.99874332 193.14923096 19.20967102 C193.13754883 20.08164124 193.1258667 20.95361145 193.11383057 21.852005 C192.41003152 43.31691697 184.41486041 64.67621373 170.58673096 81.14717102 C169.87774658 81.99408508 169.16876221 82.84099915 168.43829346 83.71357727 C149.62584795 105.33138746 124.26720539 118.89211711 95.58673096 121.14717102 C66.57359732 122.50130933 38.74255899 113.97689543 16.83087158 94.59394836 C9.79126961 88.10321658 3.65808321 81.3042667 -1.41326904 73.14717102 C-1.92115967 72.38404602 -2.42905029 71.62092102 -2.95233154 70.83467102 C-13.29909781 54.70432772 -21.62887491 29.7217469 -17.63983154 10.40107727 C-16.41564287 7.15346846 -15.61358869 5.84317888 -12.91326904 3.77217102 C-12.00061279 3.04900696 -12.00061279 3.04900696 -11.06951904 2.31123352 C-7.45968938 -0.22586375 -4.26796901 -0.00107882 0 0 Z " fill="#000000" transform="translate(319.41326904296875,303.8528289794922)"/>
<path d="M0 0 C0.7733504 -0.00367669 1.54670081 -0.00735338 2.34348607 -0.01114148 C4.94898838 -0.02220244 7.55445084 -0.02602623 10.15997314 -0.02983093 C12.02243172 -0.03609377 13.88488903 -0.04274041 15.74734497 -0.04974365 C20.81771128 -0.06717025 25.88806814 -0.07770997 30.95845699 -0.08594918 C34.12478487 -0.09109589 37.29110981 -0.09717178 40.45743561 -0.10346031 C50.3598153 -0.12251714 60.26218751 -0.13674715 70.16458201 -0.14507228 C81.60317183 -0.15484708 93.04156825 -0.18117093 104.4800899 -0.22157317 C113.31582135 -0.25171325 122.15149731 -0.26653916 130.98727918 -0.26985329 C136.26702523 -0.27220622 141.54656479 -0.28119813 146.8262558 -0.30631447 C151.7937372 -0.32956323 156.7608757 -0.33384127 161.72839737 -0.32355309 C163.55130528 -0.32305683 165.37422988 -0.32940354 167.19708633 -0.34310913 C169.68697872 -0.36078192 172.17563439 -0.35374525 174.66552734 -0.34057617 C175.38596623 -0.35154542 176.10640512 -0.36251466 176.84867549 -0.37381631 C183.0518258 -0.29467286 186.46382563 2.19639316 190.89923096 6.27217102 C196.99693243 16.6608476 192.58150552 32.79174424 189.83673096 43.89717102 C182.8523144 68.25242432 167.08048553 90.56878116 145.58673096 104.14717102 C144.23321533 105.02502258 144.23321533 105.02502258 142.85235596 105.92060852 C128.43083444 114.84636103 111.55388213 120.3139627 94.58673096 121.14717102 C93.57610596 121.20002258 92.56548096 121.25287415 91.52423096 121.30732727 C62.25008352 122.08661592 35.40878322 111.34016568 13.99298096 91.48310852 C-4.90295134 73.13933009 -17.19270593 48.3631893 -17.89593506 21.79438782 C-17.90165527 20.92080627 -17.90737549 20.04722473 -17.91326904 19.14717102 C-17.91963379 18.31677307 -17.92599854 17.48637512 -17.93255615 16.6308136 C-17.83327406 11.99716987 -17.36778985 8.91648773 -14.41326904 5.14717102 C-9.41853492 0.76155081 -6.49807896 -0.00164254 0 0 Z " fill="#000000" transform="translate(17.41326904296875,192.8528289794922)"/>
</svg>
